<?xml version="1.0" standalone="no"?>
<!DOCTYPE svg PUBLIC "-//W3C//DTD SVG 20010904//EN"
 "http://www.w3.org/TR/2001/REC-SVG-20010904/DTD/svg10.dtd">
<svg version="1.0" xmlns="http://www.w3.org/2000/svg"
 width="128.000000pt" height="128.000000pt" viewBox="0 0 128.000000 128.000000"
 preserveAspectRatio="xMidYMid meet">

<g transform="translate(0.000000,128.000000) scale(0.100000,-0.100000)"
fill="#000000" stroke="none">
<path d="M387 1254 c-4 -4 -7 -72 -7 -151 0 -151 -17 -202 -22 -65 l-3 77 -55
0 -55 0 -3 -77 -3 -78 -85 0 c-77 0 -87 -2 -109 -25 l-25 -24 0 -331 0 -331
25 -24 24 -25 222 0 c198 0 221 -2 215 -16 -3 -9 -9 -26 -12 -39 -5 -20 -13
-24 -47 -27 -37 -3 -42 -6 -45 -30 l-3 -27 -107 -3 c-87 -2 -107 -6 -107 -18
0 -13 57 -15 455 -15 398 0 455 2 455 15 0 12 -20 16 -107 18 l-107 3 -3 27
c-3 24 -8 27 -45 30 -34 3 -42 7 -47 27 -3 13 -9 30 -12 39 -6 14 17 16 215
16 l222 0 24 25 25 24 0 331 0 331 -25 24 c-13 14 -35 25 -49 25 l-25 0 19 43
c26 56 25 103 -2 157 -67 132 -249 132 -315 0 -28 -54 -29 -101 -3 -157 l19
-43 -119 0 -119 0 -3 108 -3 107 -55 0 -55 0 -3 -107 c-1 -60 -7 -108 -12
-108 -5 0 -11 64 -12 148 l-3 147 -50 3 c-28 2 -54 0 -58 -4z m73 -264 c0
-223 -1 -230 -20 -230 -19 0 -20 7 -20 230 0 223 1 230 20 230 19 0 20 -7 20
-230z m498 53 c-23 -23 -45 -43 -48 -43 -12 0 -30 51 -30 84 0 43 36 96 80
119 l35 17 3 -67 c3 -66 3 -66 -40 -110z m130 157 c29 -18 72 -73 72 -92 0 -5
-27 -8 -60 -8 l-60 0 0 60 c0 33 3 60 8 60 4 0 22 -9 40 -20z m-488 -250 c0
-183 -1 -190 -20 -190 -19 0 -20 7 -20 190 0 183 1 190 20 190 19 0 20 -7 20
-190z m-280 -30 c0 -153 -1 -160 -20 -160 -19 0 -20 7 -20 160 0 153 1 160 20
160 19 0 20 -7 20 -160z m840 133 c0 -20 -43 -75 -72 -93 -46 -28 -112 -25
-147 7 -3 2 15 24 39 48 44 45 45 45 112 45 37 0 68 -3 68 -7z m-920 -213 c0
-97 -18 -107 -22 -12 l-3 67 -55 0 -55 0 0 -85 0 -85 335 0 335 0 0 85 0 85
-55 0 -55 0 -3 -67 c-4 -96 -22 -85 -22 13 l0 80 168 -5 c242 -8 251 -9 320
-1 44 5 66 4 77 -5 13 -10 15 -55 15 -281 l0 -269 -580 0 -580 0 0 268 c0 195
3 271 12 280 7 7 43 12 90 12 l78 0 0 -80z m140 0 c0 -47 -4 -80 -10 -80 -6 0
-10 33 -10 80 0 47 4 80 10 80 6 0 10 -33 10 -80z m140 0 c0 -47 -4 -80 -10
-80 -6 0 -10 33 -10 80 0 47 4 80 10 80 6 0 10 -33 10 -80z m-340 -30 c0 -43
-3 -50 -20 -50 -17 0 -20 7 -20 50 0 43 3 50 20 50 17 0 20 -7 20 -50z m560 0
c0 -43 -3 -50 -20 -50 -17 0 -20 7 -20 50 0 43 3 50 20 50 17 0 20 -7 20 -50z
m480 -518 c0 -15 -5 -33 -12 -40 -17 -17 -1119 -17 -1136 0 -7 7 -12 25 -12
40 l0 28 580 0 580 0 0 -28z m-486 -116 c3 -13 9 -31 12 -40 5 -14 -8 -16
-106 -16 -98 0 -111 2 -106 16 3 9 9 27 12 40 6 23 10 24 94 24 84 0 88 -1 94
-24z m106 -106 c0 -6 -73 -10 -200 -10 -127 0 -200 4 -200 10 0 6 73 10 200
10 127 0 200 -4 200 -10z"/>
<path d="M885 830 c-38 -39 -46 -53 -37 -62 9 -9 21 -3 55 30 l42 41 95 3 c76
2 95 6 95 18 0 12 -19 16 -100 18 l-100 3 -50 -51z"/>
<path d="M105 689 c-15 -23 16 -30 131 -27 98 2 119 6 119 18 0 12 -21 15
-122 18 -81 2 -124 -1 -128 -9z"/>
<path d="M385 690 c-4 -7 -3 -16 3 -22 14 -14 47 -6 47 12 0 18 -40 26 -50 10z"/>
<path d="M742 641 c-20 -21 -74 -66 -120 -100 -81 -61 -83 -62 -116 -50 -29
11 -38 10 -60 -4 -25 -17 -29 -16 -122 23 -53 22 -107 51 -120 65 -13 14 -32
25 -44 25 -26 0 -60 -34 -60 -60 0 -25 34 -60 58 -60 10 0 27 7 39 15 20 14
29 12 119 -25 53 -22 107 -51 120 -65 32 -35 59 -31 102 14 20 21 74 66 120
100 81 61 83 62 116 50 29 -10 38 -10 58 3 23 15 28 13 120 -41 53 -31 108
-69 122 -84 14 -15 34 -27 46 -27 26 0 60 34 60 60 0 25 -34 60 -58 60 -10 0
-27 -6 -38 -14 -18 -13 -29 -9 -116 43 -53 31 -108 69 -122 84 -34 37 -60 34
-104 -12z m74 -12 c10 -17 -13 -36 -27 -22 -12 12 -4 33 11 33 5 0 12 -5 16
-11z m-640 -80 c10 -17 -13 -36 -27 -22 -12 12 -4 33 11 33 5 0 12 -5 16 -11z
m960 -60 c10 -17 -13 -36 -27 -22 -12 12 -4 33 11 33 5 0 12 -5 16 -11z m-640
-40 c10 -17 -13 -36 -27 -22 -12 12 -4 33 11 33 5 0 12 -5 16 -11z"/>
<path d="M885 470 c-12 -19 10 -32 51 -28 27 2 39 8 39 18 0 19 -79 27 -90 10z"/>
<path d="M805 410 c-14 -23 13 -31 91 -28 62 2 79 6 79 18 0 12 -17 16 -82 18
-52 2 -84 -1 -88 -8z"/>
<path d="M105 290 c-14 -22 12 -31 81 -28 53 2 69 6 69 18 0 12 -16 16 -72 18
-45 2 -74 -1 -78 -8z"/>
<path d="M285 290 c-4 -7 -3 -16 3 -22 14 -14 47 -6 47 12 0 18 -40 26 -50 10z"/>
</g>
</svg>
