<?xml version="1.0" standalone="no"?>
<!DOCTYPE svg PUBLIC "-//W3C//DTD SVG 20010904//EN"
 "http://www.w3.org/TR/2001/REC-SVG-20010904/DTD/svg10.dtd">
<svg version="1.0" xmlns="http://www.w3.org/2000/svg"
 width="128.000000pt" height="128.000000pt" viewBox="0 0 128.000000 128.000000"
 preserveAspectRatio="xMidYMid meet">

<g transform="translate(0.000000,128.000000) scale(0.100000,-0.100000)"
fill="#000000" stroke="none">
<path d="M187 1253 c-4 -3 -7 -120 -7 -259 l0 -253 -77 -3 -78 -3 -3 -315 c-3
-341 0 -360 49 -385 41 -22 896 -22 938 -1 33 18 51 54 51 106 l0 39 98 3 97
3 0 195 0 195 -97 3 -98 3 -2 337 -3 337 -431 3 c-237 1 -434 -1 -437 -5z
m833 -353 c0 -286 -2 -320 -16 -320 -9 0 -18 -9 -21 -20 -8 -32 -54 -26 -91
13 -27 28 -31 40 -34 97 l-3 65 -32 3 c-24 2 -39 -3 -58 -22 -22 -22 -25 -33
-25 -101 l0 -75 -80 0 c-118 0 -120 -3 -120 -180 0 -186 -6 -180 170 -180 111
0 137 3 170 20 48 25 100 27 100 4 0 -9 9 -18 20 -21 28 -7 28 -75 0 -103 -19
-19 -33 -20 -410 -20 -383 0 -391 0 -380 19 6 13 10 213 10 580 l0 561 400 0
400 0 0 -320z m-840 -500 c0 -287 -1 -301 -20 -320 -25 -25 -55 -25 -80 0 -19
19 -20 33 -20 320 l0 300 60 0 60 0 0 -300z m640 248 c0 -49 3 -55 47 -100 37
-38 54 -48 80 -48 l33 0 0 -120 0 -120 -30 0 c-17 0 -49 -9 -71 -20 -34 -18
-55 -20 -167 -18 -111 3 -127 5 -130 21 -3 15 6 17 77 17 74 0 81 2 81 20 0
18 -7 20 -80 20 -73 0 -80 2 -80 20 0 18 7 20 80 20 73 0 80 2 80 20 0 18 -7
20 -80 20 -73 0 -80 2 -80 20 0 18 7 20 80 20 73 0 80 2 80 20 0 18 -7 20 -81
20 -71 0 -80 2 -77 18 3 14 18 18 98 22 l95 5 3 85 c3 78 12 110 33 110 5 0 9
-23 9 -52z m400 -268 l0 -160 -100 0 -100 0 0 160 0 160 100 0 100 0 0 -160z"/>
<path d="M550 1143 c-43 -22 -85 -36 -123 -40 -38 -4 -61 -11 -64 -21 -10 -24
17 -142 45 -201 26 -54 130 -169 186 -206 31 -21 38 -17 132 68 40 37 73 79
97 124 35 67 65 187 54 215 -3 10 -26 17 -63 21 -35 4 -83 19 -123 39 -36 18
-68 34 -71 34 -3 1 -34 -14 -70 -33z m130 -42 c34 -16 84 -32 111 -36 l50 -7
-6 -42 c-17 -97 -64 -177 -152 -255 -31 -28 -60 -51 -63 -51 -3 0 -32 23 -63
51 -88 78 -135 158 -152 255 l-6 42 49 7 c28 4 76 19 109 35 32 16 59 29 60
29 0 1 29 -12 63 -28z"/>
<path d="M575 1055 c-22 -13 -59 -27 -82 -31 -24 -3 -46 -10 -49 -15 -3 -5 2
-33 12 -62 13 -39 34 -69 85 -119 37 -38 73 -68 80 -68 7 0 43 31 80 68 49 50
70 81 83 120 10 28 15 56 12 60 -3 5 -25 12 -48 16 -24 4 -62 18 -85 32 -23
13 -43 24 -45 24 -2 0 -21 -12 -43 -25z m83 -44 c20 -10 50 -21 65 -25 23 -6
27 -10 22 -29 -11 -36 -55 -94 -91 -122 l-34 -26 -35 26 c-36 28 -95 109 -95
131 0 7 17 18 38 24 20 6 48 17 62 25 31 18 24 18 68 -4z"/>
<path d="M470 675 c-9 -10 -39 -15 -108 -17 l-97 -3 0 -95 0 -95 95 0 95 0 3
75 c3 65 7 79 29 102 14 14 22 31 19 37 -10 15 -21 14 -36 -4z m-82 -82 c-23
-23 -29 -24 -43 -13 -12 10 -19 10 -28 1 -9 -9 -5 -18 16 -38 l27 -27 30 29
30 29 0 -37 0 -37 -60 0 -60 0 0 60 0 60 57 0 58 0 -27 -27z"/>
<path d="M470 435 c-9 -10 -39 -15 -108 -17 l-97 -3 0 -95 0 -95 95 0 95 0 3
75 c3 65 7 79 29 102 14 14 22 31 19 37 -10 15 -21 14 -36 -4z m-82 -82 c-23
-23 -29 -24 -43 -13 -12 10 -19 10 -28 1 -9 -9 -5 -18 16 -38 l27 -27 30 29
30 29 0 -37 0 -37 -60 0 -60 0 0 60 0 60 57 0 58 0 -27 -27z"/>
</g>
</svg>
