<?xml version="1.0" standalone="no"?>
<!DOCTYPE svg PUBLIC "-//W3C//DTD SVG 20010904//EN"
 "http://www.w3.org/TR/2001/REC-SVG-20010904/DTD/svg10.dtd">
<svg version="1.0" xmlns="http://www.w3.org/2000/svg"
 width="128.000000pt" height="128.000000pt" viewBox="0 0 128.000000 128.000000"
 preserveAspectRatio="xMidYMid meet">

<g transform="translate(0.000000,128.000000) scale(0.100000,-0.100000)"
fill="#000000" stroke="none">
<path d="M294 1251 c-11 -5 -32 -23 -47 -40 -23 -28 -31 -31 -86 -31 -125 0
-141 -25 -141 -220 0 -204 13 -220 169 -220 l88 0 -26 -52 c-35 -70 -36 -180
-4 -250 17 -38 19 -49 8 -58 -7 -6 -19 -8 -27 -5 -8 3 -50 -32 -111 -93 -111
-114 -121 -140 -68 -193 53 -53 79 -43 193 68 61 61 96 103 93 111 -3 8 -1 20
5 27 9 11 20 9 58 -8 72 -33 180 -31 254 6 68 33 122 93 146 159 l17 48 62 0
63 0 0 -45 c0 -25 2 -45 5 -45 3 0 36 20 73 45 40 27 78 45 95 45 39 0 81 24
95 55 16 35 16 295 0 330 -17 37 -58 55 -127 55 -57 0 -63 2 -95 38 -31 34
-39 37 -86 37 -47 0 -55 -3 -86 -37 -32 -36 -38 -38 -94 -38 l-60 0 0 80 c0
128 -28 160 -140 160 -56 0 -62 2 -92 36 -35 38 -92 53 -134 35z m101 -56 c50
-49 15 -135 -55 -135 -41 0 -80 39 -80 80 0 41 39 80 80 80 19 0 40 -9 55 -25z
m-170 -82 c3 -16 14 -36 23 -46 15 -17 15 -19 -3 -29 -60 -33 -105 -113 -105
-187 l0 -31 113 0 112 0 -25 -20 c-21 -17 -41 -20 -132 -20 -150 0 -148 -3
-148 180 0 171 5 180 99 180 56 0 59 -1 66 -27z m375 7 c17 -17 20 -33 20
-115 0 -52 -4 -95 -9 -95 -5 0 -14 -13 -21 -29 -18 -43 -44 -30 -59 30 -13 49
-54 104 -96 127 -18 10 -18 12 -3 29 9 10 20 30 23 46 7 26 10 27 66 27 46 0
64 -5 79 -20z m-250 -149 c0 -27 3 -63 6 -80 6 -27 4 -31 -16 -31 -20 0 -22 4
-16 31 3 17 6 53 6 80 0 27 5 49 10 49 6 0 10 -22 10 -49z m-60 -5 c0 -24 -3
-58 -6 -75 -6 -30 -9 -31 -55 -31 -53 0 -57 6 -39 56 11 28 74 94 91 94 5 0 9
-20 9 -44z m145 20 c32 -25 65 -80 65 -110 0 -12 -11 -16 -49 -16 -46 0 -49 1
-55 31 -8 41 -8 119 1 119 3 0 21 -11 38 -24z m520 -31 c16 -15 25 -36 25 -55
0 -19 -9 -40 -25 -55 -15 -16 -36 -25 -55 -25 -19 0 -40 9 -55 25 -16 15 -25
36 -25 55 0 19 9 40 25 55 15 16 36 25 55 25 19 0 40 -9 55 -25z m-170 -82 c3
-16 14 -36 22 -46 9 -9 14 -19 12 -20 -2 -2 -19 -14 -37 -26 l-32 -23 -38 31
c-21 16 -50 35 -65 42 -32 15 -33 23 -7 49 15 15 33 20 79 20 56 0 59 -1 66
-27z m375 7 c18 -18 20 -33 20 -160 0 -127 -2 -142 -20 -160 -12 -12 -33 -20
-52 -20 -20 0 -51 -12 -78 -30 l-45 -30 -3 30 -3 30 -80 0 c-72 0 -79 2 -79
20 0 19 7 20 140 20 l140 0 0 31 c0 74 -45 154 -105 187 -18 10 -18 12 -3 29
9 10 20 30 23 46 7 26 10 27 66 27 46 0 64 -5 79 -20z m-525 -88 c47 -24 95
-73 121 -122 26 -49 26 -171 0 -220 -26 -49 -74 -98 -121 -123 -31 -17 -58
-22 -115 -22 -85 0 -133 20 -186 77 -54 57 -69 95 -69 178 0 83 15 121 69 178
31 34 70 58 116 73 41 14 142 3 185 -19z m275 -61 c0 -27 3 -63 6 -80 6 -27 4
-31 -16 -31 -20 0 -22 4 -16 31 3 17 6 53 6 80 0 27 5 49 10 49 6 0 10 -22 10
-49z m-60 -5 c0 -60 -10 -106 -24 -106 -6 0 -20 23 -30 52 l-18 52 28 23 c16
13 32 23 37 23 4 0 7 -20 7 -44z m145 20 c32 -25 65 -80 65 -110 0 -12 -11
-16 -49 -16 -46 0 -49 1 -55 31 -8 41 -8 119 1 119 3 0 21 -11 38 -24z m-685
-401 c10 -12 10 -19 2 -27 -15 -15 -48 14 -38 31 10 15 21 14 36 -4z m-50 -50
l34 -35 -74 -76 c-41 -41 -85 -77 -98 -81 -27 -7 -62 21 -62 50 0 17 144 177
160 177 3 0 21 -16 40 -35z"/>
<path d="M100 1080 c0 -13 7 -20 20 -20 13 0 20 7 20 20 0 13 -7 20 -20 20
-13 0 -20 -7 -20 -20z"/>
<path d="M100 1000 c0 -13 7 -20 20 -20 13 0 20 7 20 20 0 13 -7 20 -20 20
-13 0 -20 -7 -20 -20z"/>
<path d="M1100 840 c0 -13 7 -20 20 -20 13 0 20 7 20 20 0 13 -7 20 -20 20
-13 0 -20 -7 -20 -20z"/>
<path d="M1100 760 c0 -13 7 -20 20 -20 13 0 20 7 20 20 0 13 -7 20 -20 20
-13 0 -20 -7 -20 -20z"/>
<path d="M419 752 c-149 -78 -158 -288 -16 -376 198 -122 423 103 301 301 -37
60 -114 103 -184 103 -33 0 -64 -9 -101 -28z m181 -34 c132 -67 132 -249 0
-316 -56 -28 -104 -28 -160 1 -132 66 -132 248 0 315 24 12 60 22 80 22 20 0
56 -10 80 -22z"/>
<path d="M800 360 c-18 -18 -20 -33 -20 -160 0 -192 -16 -180 240 -180 256 0
240 -12 240 180 0 192 16 180 -240 180 -187 0 -201 -1 -220 -20z m415 -160 l0
-135 -195 0 -195 0 -3 124 c-1 69 0 131 2 138 4 11 45 13 198 11 l193 -3 0
-135z"/>
<path d="M860 200 l0 -100 160 0 c153 0 160 1 160 20 0 13 -7 20 -20 20 -18 0
-20 7 -20 60 0 53 -2 60 -20 60 -18 0 -20 -7 -20 -60 0 -53 -2 -60 -20 -60
-17 0 -20 7 -20 40 0 33 -3 40 -20 40 -17 0 -20 -7 -20 -40 0 -33 -3 -40 -20
-40 -13 0 -20 7 -20 20 0 13 -7 20 -20 20 -13 0 -20 -7 -20 -20 0 -13 -7 -20
-20 -20 -18 0 -20 7 -20 80 0 73 -2 80 -20 80 -19 0 -20 -7 -20 -100z"/>
</g>
</svg>
