<?xml version="1.0" standalone="no"?>
<!DOCTYPE svg PUBLIC "-//W3C//DTD SVG 20010904//EN"
 "http://www.w3.org/TR/2001/REC-SVG-20010904/DTD/svg10.dtd">
<svg version="1.0" xmlns="http://www.w3.org/2000/svg"
 width="128.000000pt" height="128.000000pt" viewBox="0 0 128.000000 128.000000"
 preserveAspectRatio="xMidYMid meet">

<g transform="translate(0.000000,128.000000) scale(0.100000,-0.100000)"
fill="#000000" stroke="none">
<path d="M1076 1210 l-63 -60 -491 0 c-433 0 -492 -2 -506 -16 -14 -13 -16
-66 -16 -428 l0 -413 23 -21 c23 -21 31 -22 255 -22 l232 0 0 -65 0 -65 -46 0
c-64 0 -84 -13 -84 -55 0 -24 6 -38 19 -45 12 -6 108 -10 241 -10 133 0 229 4
241 10 13 7 19 21 19 45 0 42 -20 55 -84 55 l-46 0 0 65 0 65 104 0 c58 0 107
4 110 8 18 29 -15 32 -475 34 l-464 3 -3 38 -3 37 601 0 601 0 -3 -37 -3 -38
-95 -5 c-80 -4 -95 -8 -98 -23 -3 -15 7 -17 96 -17 154 0 142 -39 142 457 0
361 -2 414 -16 427 -8 9 -21 16 -28 16 -9 0 -12 9 -8 26 3 19 -3 34 -29 60
-18 19 -39 34 -47 34 -7 0 -42 -27 -76 -60z m99 -40 l-19 -21 -20 20 c-19 20
-19 21 -1 41 l19 21 20 -20 c19 -20 19 -21 1 -41z m-55 -53 c0 -6 -9 -2 -20 8
-11 10 -20 23 -20 28 0 6 9 2 20 -8 11 -10 20 -23 20 -28z m-150 -12 c-10 -12
-64 -15 -339 -17 -282 -3 -326 -5 -326 -18 0 -13 43 -16 303 -20 l303 -5 -65
-64 c-49 -49 -72 -81 -91 -129 -26 -64 -26 -82 1 -82 30 0 119 44 153 74 23
21 35 27 38 18 3 -7 18 -19 34 -27 80 -42 159 66 95 130 l-24 23 32 31 c22 22
42 31 64 31 l32 0 0 -285 c0 -157 -3 -285 -7 -285 -5 0 -24 27 -42 60 -33 56
-48 69 -64 53 -4 -3 7 -30 24 -60 l30 -53 -129 0 c-124 0 -130 1 -145 23 -13
21 -10 29 51 136 l65 113 34 -55 c23 -38 39 -54 48 -50 8 3 15 8 15 12 0 10
-72 126 -83 133 -21 13 -38 -7 -99 -113 -34 -59 -65 -106 -69 -103 -5 2 -42
65 -84 139 -42 73 -83 136 -91 139 -14 5 -27 -5 -64 -54 l-19 -25 -1 105 c0
69 -4 110 -12 118 -8 8 -65 12 -189 12 -148 0 -180 -3 -193 -16 -14 -13 -16
-48 -16 -224 0 -115 3 -215 6 -224 5 -13 27 -16 135 -16 71 0 129 -3 129 -6 0
-3 -5 -14 -10 -25 -10 -17 -23 -19 -155 -19 l-145 0 0 285 0 284 73 3 c56 2
72 6 72 18 0 11 -15 16 -65 18 -35 2 -75 0 -87 -3 l-23 -5 2 -318 3 -317 565
0 565 0 3 317 2 318 -25 6 c-21 5 -23 9 -14 21 7 8 24 13 38 11 l26 -3 3 -352
2 -353 -600 0 -600 0 0 348 c0 192 3 352 7 355 3 4 215 7 471 7 410 0 463 -2
452 -15z m103 -3 c15 -17 10 -25 -96 -130 l-113 -113 -19 21 c-19 21 -18 21
90 130 60 61 112 110 116 110 3 0 13 -8 22 -18z m-555 -164 l-3 -33 -167 -3
-168 -2 0 35 0 35 171 0 170 0 -3 -32z m530 0 c21 -21 14 -57 -13 -70 -22 -10
-29 -9 -47 10 l-22 22 24 25 c26 28 40 31 58 13z m-219 -102 c-2 -2 -14 -7
-27 -10 -21 -7 -22 -6 -10 19 10 23 13 24 27 11 8 -9 13 -17 10 -20z m-311
-123 l-3 -148 -167 -3 -168 -2 0 150 0 150 170 0 171 0 -3 -147z m156 15 c32
-55 27 -78 -9 -42 -21 21 -28 23 -45 14 -12 -6 -26 -22 -32 -36 -14 -29 -25
-31 -33 -4 -4 14 6 42 30 86 41 73 35 75 89 -18z m13 -108 c12 0 25 5 29 11 6
10 94 -124 94 -143 0 -5 -86 -8 -190 -8 l-190 0 16 24 c12 19 26 26 57 28 37
3 42 6 45 29 2 17 11 29 22 32 11 3 29 22 41 42 l22 37 16 -26 c9 -15 25 -26
38 -26z m43 -435 l0 -65 -90 0 -90 0 0 65 0 65 90 0 90 0 0 -65z m130 -120 c0
-13 -31 -15 -220 -15 -189 0 -220 2 -220 15 0 13 31 15 220 15 189 0 220 -2
220 -15z"/>
<path d="M354 949 c-10 -17 13 -36 27 -22 12 12 4 33 -11 33 -5 0 -12 -5 -16
-11z"/>
<path d="M412 944 c4 -21 22 -23 26 -1 2 10 -3 17 -13 17 -10 0 -15 -6 -13
-16z"/>
<path d="M462 944 c4 -21 22 -23 26 -1 2 10 -3 17 -13 17 -10 0 -15 -6 -13
-16z"/>
<path d="M265 809 c-4 -5 -18 -14 -31 -19 -28 -11 -32 -40 -5 -40 10 0 24 -7
31 -15 16 -19 66 -19 77 -1 6 10 30 16 78 18 54 2 70 6 70 18 0 12 -16 16 -72
18 -47 2 -75 8 -83 17 -14 17 -56 20 -65 4z m43 -40 c-2 -6 -8 -10 -13 -10 -5
0 -11 4 -13 10 -2 6 4 11 13 11 9 0 15 -5 13 -11z"/>
<path d="M360 695 c-9 -11 -32 -15 -82 -15 -61 0 -69 -2 -66 -17 3 -15 16 -19
70 -21 43 -2 71 -8 78 -17 16 -19 54 -19 72 -1 8 8 23 16 34 18 25 4 25 32 -1
36 -11 3 -24 10 -28 18 -11 19 -61 18 -77 -1z m50 -36 c0 -5 -7 -9 -15 -9 -15
0 -20 12 -9 23 8 8 24 -1 24 -14z"/>
<path d="M582 333 c3 -15 14 -18 58 -18 44 0 55 3 58 18 3 15 -5 17 -58 17
-53 0 -61 -2 -58 -17z"/>
</g>
</svg>
