<?xml version="1.0" standalone="no"?>
<!DOCTYPE svg PUBLIC "-//W3C//DTD SVG 20010904//EN"
 "http://www.w3.org/TR/2001/REC-SVG-20010904/DTD/svg10.dtd">
<svg version="1.0" xmlns="http://www.w3.org/2000/svg"
 width="128.000000pt" height="128.000000pt" viewBox="0 0 128.000000 128.000000"
 preserveAspectRatio="xMidYMid meet">

<g transform="translate(0.000000,128.000000) scale(0.100000,-0.100000)"
fill="#000000" stroke="none">
<path d="M12 1268 c-17 -17 -17 -1099 0 -1116 9 -9 83 -12 270 -12 l258 0 0
-54 c0 -90 -10 -87 303 -84 234 3 272 5 272 18 0 9 -11 16 -27 18 -20 2 -28 9
-28 23 0 17 8 19 90 19 82 0 90 -2 90 -19 0 -14 -8 -21 -27 -23 -41 -4 -36
-32 5 -36 56 -6 62 7 62 137 0 78 -4 121 -12 129 -8 8 -47 12 -110 12 l-98 0
0 113 c0 75 -4 117 -12 125 -7 7 -31 12 -55 12 l-43 0 0 89 c0 108 -9 121 -81
121 l-49 0 0 81 c0 71 -2 80 -17 77 -15 -3 -18 -16 -21 -81 l-3 -77 -104 0
c-96 0 -105 -2 -119 -22 -9 -12 -16 -37 -16 -55 l0 -33 -195 0 c-188 0 -195
-1 -195 -20 0 -19 7 -20 195 -20 l195 0 0 -45 0 -45 -189 0 c-145 0 -191 -3
-200 -13 -6 -8 -8 -17 -4 -20 3 -4 93 -7 200 -7 l193 0 0 -140 0 -140 -250 0
-250 0 0 530 0 530 370 0 370 0 0 -77 c0 -80 9 -111 29 -99 15 10 15 188 -1
204 -17 17 -779 17 -796 0z m626 -590 c-8 -12 -24 -28 -36 -36 -21 -14 -22
-13 -22 22 0 35 1 36 36 36 35 0 36 -1 22 -22z m182 -11 c8 -17 32 -43 53 -56
28 -19 37 -31 37 -53 0 -26 -3 -28 -37 -28 -44 0 -58 -8 -67 -35 -5 -17 -13
-20 -48 -17 -89 6 -148 -71 -115 -150 20 -48 57 -71 113 -70 l44 0 0 -109 0
-109 -55 0 c-49 0 -57 3 -64 23 -11 28 -66 77 -87 77 -12 0 -14 37 -14 224 l0
224 38 19 c22 12 44 34 55 56 18 36 20 37 75 37 54 0 58 -2 72 -33z m90 -3 c0
-37 -6 -38 -42 -6 -28 23 -22 42 12 42 28 0 30 -3 30 -36z m110 -194 c0 -19
-7 -20 -90 -20 -83 0 -90 1 -90 20 0 19 7 20 90 20 83 0 90 -1 90 -20z m-222
-98 c3 -53 0 -62 -18 -72 -72 -38 -147 63 -87 117 28 26 46 31 77 23 23 -6 25
-12 28 -68z m222 18 c0 -19 -7 -20 -90 -20 -83 0 -90 1 -90 20 0 19 7 20 90
20 83 0 90 -1 90 -20z m0 -85 l0 -26 -87 3 c-83 3 -88 4 -91 26 -3 21 -1 22
87 22 91 0 91 0 91 -25z m0 -80 c0 -25 -1 -25 -90 -25 -89 0 -90 0 -90 25 0
25 1 25 90 25 89 0 90 0 90 -25z m220 0 c0 -25 -1 -25 -90 -25 -89 0 -90 0
-90 25 0 25 1 25 90 25 89 0 90 0 90 -25z m-220 -85 c0 -19 -7 -20 -90 -20
-83 0 -90 1 -90 20 0 19 7 20 90 20 83 0 90 -1 90 -20z m220 0 c0 -19 -7 -20
-90 -20 -83 0 -90 1 -90 20 0 19 7 20 90 20 83 0 90 -1 90 -20z m-618 -57 c32
-37 31 -43 -6 -43 -33 0 -36 2 -36 30 0 34 19 40 42 13z m398 -23 c0 -19 -7
-20 -90 -20 -83 0 -90 1 -90 20 0 19 7 20 90 20 83 0 90 -1 90 -20z"/>
<path d="M1137 1214 c-17 -17 -6 -34 23 -34 17 0 30 -3 30 -8 0 -11 -164 -172
-175 -172 -5 0 -33 24 -62 52 l-53 53 -125 -125 c-97 -97 -122 -128 -115 -140
8 -12 32 8 125 100 l115 114 53 -52 c29 -28 57 -52 62 -52 5 0 53 43 106 96
l96 96 6 -32 c12 -56 32 -30 32 41 l0 64 -55 3 c-31 2 -59 0 -63 -4z"/>
<path d="M213 1135 c-3 -9 -18 -29 -34 -45 -17 -17 -29 -39 -29 -54 0 -26 31
-66 50 -66 6 0 10 -27 10 -61 0 -54 -2 -60 -17 -54 -54 22 -71 -7 -20 -31 20
-9 38 -25 40 -35 7 -24 26 -24 35 0 4 10 22 31 40 46 24 20 32 35 32 60 0 47
-8 64 -41 81 -25 13 -29 20 -29 60 0 41 2 44 19 34 27 -14 31 -13 31 10 0 13
-9 22 -25 26 -16 4 -25 13 -25 25 0 23 -28 25 -37 4z m-6 -112 c-4 -17 -4 -17
-12 0 -4 9 -4 25 0 35 8 16 8 16 12 0 3 -10 3 -26 0 -35z m68 -97 c13 -19 14
-29 5 -45 -18 -34 -30 -24 -30 24 0 25 2 45 5 45 2 0 12 -11 20 -24z"/>
<path d="M415 1100 c-15 -24 12 -30 126 -30 112 0 119 1 119 20 0 19 -7 20
-119 20 -69 0 -122 -4 -126 -10z"/>
<path d="M410 955 c0 -12 16 -15 80 -15 64 0 80 3 80 15 0 12 -16 15 -80 15
-64 0 -80 -3 -80 -15z"/>
<path d="M152 343 c3 -16 18 -18 128 -21 123 -2 159 5 146 27 -5 7 -54 11
-142 11 -124 0 -135 -2 -132 -17z"/>
</g>
</svg>
