<?xml version="1.0" standalone="no"?>
<!DOCTYPE svg PUBLIC "-//W3C//DTD SVG 20010904//EN"
 "http://www.w3.org/TR/2001/REC-SVG-20010904/DTD/svg10.dtd">
<svg version="1.0" xmlns="http://www.w3.org/2000/svg"
 width="128.000000pt" height="128.000000pt" viewBox="0 0 128.000000 128.000000"
 preserveAspectRatio="xMidYMid meet">

<g transform="translate(0.000000,128.000000) scale(0.100000,-0.100000)"
fill="#000000" stroke="none">
<path d="M549 1137 c-79 -27 -138 -66 -186 -122 -47 -55 -61 -83 -134 -284
-71 -197 -71 -204 5 -209 l46 -3 0 -76 c0 -72 1 -76 34 -109 32 -32 38 -34
100 -34 l65 0 3 -87 3 -88 255 0 255 0 5 170 c5 163 6 172 32 215 140 233 43
527 -204 622 -83 32 -198 34 -279 5z m272 -46 c147 -56 252 -226 235 -382 -7
-69 -37 -153 -71 -199 -24 -33 -25 -39 -25 -192 l0 -158 -220 0 -219 0 -3 87
-3 88 -82 5 c-48 3 -88 10 -95 18 -8 8 -15 49 -18 105 l-5 92 -53 3 c-46 3
-53 6 -47 20 4 9 32 85 62 167 30 83 65 168 78 191 45 78 144 151 232 174 58
14 171 5 234 -19z"/>
<path d="M664 1027 c-9 -25 0 -62 16 -62 10 0 15 10 15 34 0 36 -21 54 -31 28z"/>
<path d="M480 947 c0 -16 32 -47 48 -47 18 0 14 25 -6 43 -22 20 -42 22 -42 4z"/>
<path d="M837 942 c-20 -22 -22 -42 -4 -42 16 0 47 32 47 48 0 18 -25 14 -43
-6z"/>
<path d="M615 906 c-102 -44 -125 -177 -45 -258 26 -27 40 -51 44 -79 5 -28
12 -43 25 -46 11 -3 21 -13 24 -24 7 -25 27 -25 34 0 3 11 13 21 23 24 13 3
20 18 25 50 5 33 14 51 32 62 36 24 66 99 60 147 -14 102 -128 165 -222 124z
m146 -62 c56 -54 45 -142 -23 -184 -43 -26 -77 -25 -119 3 -78 52 -78 151 0
201 39 25 105 16 142 -20z m-53 -261 c-2 -12 -12 -18 -28 -18 -16 0 -26 6 -28
18 -3 13 3 17 28 17 25 0 31 -4 28 -17z"/>
<path d="M405 770 c-11 -18 10 -32 41 -28 40 4 38 32 -3 36 -17 2 -34 -2 -38
-8z"/>
<path d="M885 770 c-11 -18 10 -32 41 -28 40 4 38 32 -3 36 -17 2 -34 -2 -38
-8z"/>
<path d="M497 602 c-20 -22 -22 -42 -4 -42 16 0 47 32 47 48 0 18 -25 14 -43
-6z"/>
<path d="M820 607 c0 -16 32 -47 48 -47 18 0 14 25 -6 43 -22 20 -42 22 -42 4z"/>
</g>
</svg>
