<?xml version="1.0" standalone="no"?>
<!DOCTYPE svg PUBLIC "-//W3C//DTD SVG 20010904//EN"
 "http://www.w3.org/TR/2001/REC-SVG-20010904/DTD/svg10.dtd">
<svg version="1.0" xmlns="http://www.w3.org/2000/svg"
 width="128.000000pt" height="128.000000pt" viewBox="0 0 128.000000 128.000000"
 preserveAspectRatio="xMidYMid meet">

<g transform="translate(0.000000,128.000000) scale(0.100000,-0.100000)"
fill="#000000" stroke="none">
<path d="M37 1222 c-15 -17 -17 -64 -17 -470 0 -439 1 -453 20 -472 11 -11 33
-20 50 -20 25 0 30 -4 30 -25 0 -14 11 -37 25 -50 l24 -25 346 0 346 0 24 25
c14 13 25 30 25 38 0 16 104 62 120 52 6 -4 4 -15 -6 -30 -18 -28 -19 -25 59
-127 33 -43 68 -78 77 -78 22 0 88 50 95 73 5 12 -14 44 -61 103 -64 83 -68
86 -99 80 -45 -9 -48 8 -11 67 39 63 48 163 21 234 -23 60 -89 125 -148 148
l-47 18 0 161 c0 190 -6 209 -65 216 -36 4 -40 8 -43 35 -8 67 3 65 -392 65
-333 0 -358 -1 -373 -18z m723 -52 l0 -30 -304 0 c-304 0 -305 0 -320 -22 -14
-19 -16 -76 -16 -421 l0 -398 -27 3 -28 3 -3 435 c-1 239 0 441 3 448 3 9 83
12 350 12 l345 0 0 -30z m105 -240 l0 -165 -46 -6 c-26 -4 -57 -13 -70 -20
-13 -8 -62 -16 -109 -19 -70 -4 -85 -8 -88 -22 -3 -15 5 -18 53 -18 l56 0 -23
-40 -23 -40 -190 -2 c-171 -3 -190 -5 -193 -20 -3 -17 11 -18 183 -18 l187 0
-4 -37 -3 -38 -180 -5 c-161 -4 -180 -7 -183 -22 -3 -17 11 -18 182 -18 l186
0 15 -36 c8 -20 15 -38 15 -40 0 -2 -89 -5 -197 -6 -179 -3 -198 -5 -201 -20
-3 -17 12 -18 216 -18 199 0 220 -2 235 -18 22 -24 101 -59 150 -67 32 -5 36
-9 27 -21 -10 -12 -68 -14 -350 -14 -299 0 -339 2 -344 16 -8 22 -8 869 1 877
4 4 162 6 352 5 l346 -3 0 -165z m83 -226 c81 -33 131 -111 132 -202 0 -149
-127 -252 -272 -221 -73 16 -151 93 -166 165 -23 108 30 216 128 258 46 20
131 20 178 0z m211 -508 c28 -35 51 -68 51 -72 0 -5 -11 -17 -24 -26 -24 -17
-24 -17 -68 39 -64 85 -64 84 -37 104 13 10 25 19 26 19 1 0 24 -29 52 -64z"/>
<path d="M247 952 c-14 -15 -17 -41 -17 -133 0 -76 4 -119 12 -127 8 -8 49
-12 118 -12 140 0 140 0 140 143 0 143 -4 147 -138 147 -83 0 -102 -3 -115
-18z m211 -129 l3 -103 -96 0 -95 0 0 105 0 106 93 -3 92 -3 3 -102z"/>
<path d="M557 954 c-4 -4 -7 -13 -7 -21 0 -11 25 -13 128 -11 105 3 127 6 127
18 0 12 -21 15 -121 18 -66 1 -123 -1 -127 -4z"/>
<path d="M557 834 c-4 -4 -7 -13 -7 -21 0 -11 25 -13 128 -11 105 3 127 6 127
18 0 12 -21 15 -121 18 -66 1 -123 -1 -127 -4z"/>
<path d="M808 671 c-73 -24 -127 -96 -128 -171 0 -20 10 -56 23 -80 66 -132
247 -132 315 0 41 79 13 183 -62 230 -39 23 -109 33 -148 21z m127 -55 c84
-55 82 -176 -4 -233 -118 -79 -267 70 -188 188 44 66 130 86 192 45z"/>
<path d="M837 599 c-14 -8 -16 -14 -6 -25 6 -7 15 -12 19 -9 16 10 60 -15 72
-40 11 -25 32 -33 43 -15 11 18 -26 71 -60 86 -40 17 -44 17 -68 3z"/>
</g>
</svg>
