<?xml version="1.0" standalone="no"?>
<!DOCTYPE svg PUBLIC "-//W3C//DTD SVG 20010904//EN"
 "http://www.w3.org/TR/2001/REC-SVG-20010904/DTD/svg10.dtd">
<svg version="1.0" xmlns="http://www.w3.org/2000/svg"
 width="128.000000pt" height="128.000000pt" viewBox="0 0 128.000000 128.000000"
 preserveAspectRatio="xMidYMid meet">

<g transform="translate(0.000000,128.000000) scale(0.100000,-0.100000)"
fill="#000000" stroke="none">
<path d="M871 1213 c-61 -61 -67 -150 -16 -212 21 -24 25 -39 25 -95 l0 -66
-34 0 c-41 0 -44 -4 -52 -64 -6 -42 -5 -46 15 -46 14 0 21 6 21 19 0 40 11 51
50 51 40 0 50 -11 50 -56 0 -32 63 -63 92 -45 10 6 27 17 38 23 17 11 24 9 47
-15 25 -25 26 -29 14 -50 -8 -12 -18 -29 -24 -37 -6 -11 -4 -28 6 -53 12 -28
22 -37 41 -37 45 0 56 -10 56 -50 0 -40 -11 -50 -56 -50 -32 0 -63 -63 -45
-92 6 -10 17 -27 23 -38 11 -17 9 -24 -15 -47 -23 -24 -30 -26 -47 -15 -11 6
-28 17 -38 23 -29 18 -92 -13 -92 -45 0 -45 -10 -56 -50 -56 l-38 0 -4 70 -3
70 40 0 c74 1 150 50 174 113 45 118 -40 247 -162 247 -103 0 -169 -59 -186
-165 l-6 -43 -77 31 c-87 34 -96 50 -48 82 16 11 30 23 30 28 0 4 18 7 40 7
49 0 80 27 80 70 0 17 9 39 20 50 15 15 20 33 20 70 0 37 -5 55 -20 70 -11 11
-20 33 -20 48 0 107 -88 226 -190 256 -68 20 -112 20 -180 0 -102 -30 -190
-149 -190 -256 0 -15 -9 -37 -20 -48 -15 -15 -20 -33 -20 -70 0 -62 23 -90 75
-90 27 0 35 -4 35 -18 0 -26 47 -95 81 -118 49 -33 38 -47 -69 -89 -73 -29
-107 -48 -138 -80 -53 -55 -66 -102 -62 -240 l3 -110 395 0 395 0 3 37 3 37
57 3 57 3 9 47 c5 26 16 50 23 53 8 2 29 -6 47 -20 18 -14 37 -25 42 -25 12 0
104 93 104 104 0 5 -11 24 -25 42 -14 18 -22 39 -20 47 3 7 27 18 53 23 l47 9
0 75 0 75 -47 9 c-26 5 -50 16 -53 23 -2 8 6 29 20 47 14 18 25 37 25 42 0 6
-22 32 -50 59 l-50 49 0 94 c0 85 2 97 25 123 51 62 45 151 -16 212 -21 21
-44 37 -51 35 -8 -3 -14 -28 -16 -70 -3 -70 -15 -83 -62 -71 -16 4 -20 15 -22
71 -2 42 -8 67 -16 70 -7 2 -30 -14 -51 -35z m74 -142 c35 -12 45 -11 78 2 35
15 37 18 37 64 0 45 1 46 18 30 11 -12 17 -33 17 -67 0 -40 -5 -54 -27 -77
-27 -28 -28 -32 -28 -144 0 -103 -2 -118 -20 -134 -20 -18 -20 -17 -20 108 0
120 -1 127 -20 127 -18 0 -20 -7 -20 -74 0 -69 -1 -74 -20 -69 -18 5 -20 14
-20 81 0 69 -2 78 -27 105 -23 23 -28 38 -28 76 0 28 6 56 15 66 14 17 15 15
20 -31 5 -47 7 -50 45 -63z m-431 57 c83 -25 166 -136 166 -222 0 -39 -17 -31
-23 12 -16 98 -116 182 -217 182 -101 0 -201 -84 -217 -182 -6 -43 -23 -51
-23 -12 0 57 25 109 75 159 70 71 145 90 239 63z m-7 -83 c21 -9 46 -23 57
-33 40 -36 75 -152 45 -152 -6 0 -28 19 -49 41 -41 45 -38 46 -108 -8 -40 -30
-49 -33 -118 -33 -73 0 -74 1 -74 25 0 31 25 93 48 119 24 27 91 56 130 56 18
0 49 -7 69 -15z m87 -221 c24 -6 26 -10 26 -60 0 -30 -7 -70 -14 -89 l-15 -35
-75 0 c-69 0 -76 -2 -76 -20 0 -18 7 -20 58 -21 l57 -1 -40 -19 c-50 -23 -99
-24 -150 0 -71 32 -105 93 -105 185 l0 54 84 3 c76 4 88 7 128 36 l43 31 27
-28 c14 -16 38 -32 52 -36z m-374 -35 c0 -49 -1 -50 -27 -47 -24 2 -29 8 -31
36 -5 47 3 62 33 62 23 0 25 -3 25 -51z m495 1 c0 -42 -2 -45 -27 -48 -27 -3
-28 -2 -28 48 0 50 1 51 28 48 25 -3 27 -6 27 -48z m-35 -115 c0 -14 -7 -28
-15 -32 -21 -8 -24 -3 -18 30 7 34 33 36 33 2z m269 -73 c98 -53 92 -195 -11
-248 -56 -29 -118 -11 -165 48 -37 45 -43 90 -19 136 16 30 53 66 76 75 32 11
87 6 119 -11z m-449 -99 c0 -28 -33 -63 -60 -63 -27 0 -60 35 -60 63 0 20 4
22 60 22 56 0 60 -2 60 -22z m-145 -53 c7 -23 53 -50 85 -50 24 0 80 27 80 38
0 4 4 13 9 20 12 19 175 -48 218 -90 42 -41 53 -80 53 -195 l0 -93 -60 0 -60
0 0 110 c0 103 -1 110 -20 110 -19 0 -20 -7 -20 -110 l0 -110 -200 0 -200 0 0
110 c0 103 -1 110 -20 110 -19 0 -20 -7 -20 -110 l0 -110 -60 0 -60 0 0 100
c0 156 26 196 171 255 46 19 87 34 91 35 4 0 10 -9 13 -20z"/>
<path d="M320 760 c0 -13 7 -20 20 -20 13 0 20 7 20 20 0 13 -7 20 -20 20 -13
0 -20 -7 -20 -20z"/>
<path d="M520 760 c0 -13 7 -20 20 -20 13 0 20 7 20 20 0 13 -7 20 -20 20 -13
0 -20 -7 -20 -20z"/>
<path d="M860 740 c0 -13 7 -20 20 -20 13 0 20 7 20 20 0 13 -7 20 -20 20 -13
0 -20 -7 -20 -20z"/>
<path d="M1050 675 c-20 -24 4 -45 26 -24 13 14 13 17 1 27 -11 10 -17 9 -27
-3z"/>
<path d="M1120 480 c0 -13 7 -20 20 -20 13 0 20 7 20 20 0 13 -7 20 -20 20
-13 0 -20 -7 -20 -20z"/>
<path d="M1045 310 c-4 -6 -1 -17 5 -26 10 -11 16 -12 26 -3 11 9 11 15 3 25
-14 17 -25 18 -34 4z"/>
<path d="M860 220 c0 -13 7 -20 20 -20 13 0 20 7 20 20 0 13 -7 20 -20 20 -13
0 -20 -7 -20 -20z"/>
</g>
</svg>
